<?xml version="1.0" encoding="UTF-8" standalone="no"?>
<svg
   xmlns:dc="http://purl.org/dc/elements/1.1/"
   xmlns:cc="http://creativecommons.org/ns#"
   xmlns:rdf="http://www.w3.org/1999/02/22-rdf-syntax-ns#"
   xmlns:svg="http://www.w3.org/2000/svg"
   xmlns="http://www.w3.org/2000/svg"
   xmlns:sodipodi="http://sodipodi.sourceforge.net/DTD/sodipodi-0.dtd"
   xmlns:inkscape="http://www.inkscape.org/namespaces/inkscape"
   version="1.0"
   width="200"
   height="200"
   id="svg2"
   sodipodi:version="0.32"
   inkscape:version="0.91 r13725"
   sodipodi:docname="player_plane.svg"
   inkscape:output_extension="org.inkscape.output.svg.inkscape">
  <metadata
     id="metadata16">
    <rdf:RDF>
      <cc:Work
         rdf:about="">
        <dc:format>image/svg+xml</dc:format>
        <dc:type
           rdf:resource="http://purl.org/dc/dcmitype/StillImage" />
        <dc:title></dc:title>
      </cc:Work>
    </rdf:RDF>
  </metadata>
  <sodipodi:namedview
     inkscape:window-height="700"
     inkscape:window-width="1080"
     inkscape:pageshadow="2"
     inkscape:pageopacity="0.0"
     guidetolerance="10.0"
     gridtolerance="10.0"
     objecttolerance="10.0"
     borderopacity="1.0"
     bordercolor="#666666"
     pagecolor="#ffffff"
     id="base"
     showgrid="false"
     inkscape:zoom="2.8875"
     inkscape:cx="67.761976"
     inkscape:cy="162.33751"
     inkscape:window-x="203"
     inkscape:window-y="60"
     inkscape:current-layer="svg2"
     inkscape:window-maximized="0" />
  <defs
     id="defs4">
    <inkscape:perspective
       sodipodi:type="inkscape:persp3d"
       inkscape:vp_x="0 : 10 : 1"
       inkscape:vp_y="0 : 1000 : 0"
       inkscape:vp_z="20 : 10 : 1"
       inkscape:persp3d-origin="10 : 6.6666667 : 1"
       id="perspective18" />
    <filter
       id="filter">
      <feGaussianBlur
         stdDeviation="0.4858"
         id="feGaussianBlur7" />
    </filter>
  </defs>
  <path
     style="fill:#000000"
     id="path13"
     d="m 11.096667,1.5810811 c 0.09528,8e-7 0.151613,0.065515 0.342482,0.5853784 0.02253,0.061361 0.06801,0.3230513 0.06801,0.3230513 -2e-6,0 0.152508,0.00729 0.191887,0.00729 0.07613,2.9e-6 0.179095,0.067882 0.230752,0.1505944 0.160261,0.2566255 0.410492,1.6690013 0.410494,2.3196524 -10e-7,0.4037743 0.03383,0.6457724 0.09716,0.6946814 0.05344,0.041271 0.33366,0.1685145 0.621813,0.2817557 0.508433,0.1998117 0.635895,0.211672 4.313827,0.4080657 2.912579,0.1555267 3.829418,0.2287526 3.966485,0.3157635 0.380048,0.2412577 0.399835,0.7986651 0.06558,1.8532936 l -0.172457,0.5440868 c 0,0 -8.965275,1.4840917 -8.965275,1.4840917 l -0.752977,5.511301 0.199173,0.05587 c 0.109482,0.03031 0.844972,0.11119 1.634688,0.179742 0.789716,0.06855 1.480512,0.161157 1.535101,0.206462 0.219451,0.182131 0.047,1.617685 -0.194317,1.617684 -0.380873,10e-7 -1.789084,0.189369 -1.863009,0.250183 -0.05276,0.04343 -1.262982,0.206462 -1.729416,0.206461 -0.466434,1e-6 -1.6766372,-0.163041 -1.7294162,-0.206461 -0.07395,-0.0608 -1.482137,-0.250182 -1.86301,-0.250183 -0.241315,0 -0.413769,-1.435555 -0.194315,-1.617684 0.05461,-0.04528 0.745381,-0.137907 1.535098,-0.206462 0.789716,-0.06855 1.5252072,-0.149431 1.6346892,-0.179743 l 0.199173,-0.05587 -0.7529762,-5.511301 c 0,0 -8.96527698,-1.4840927 -8.96527798,-1.4840917 l -0.172455,-0.5440869 c -0.334254,-1.0546291 -0.314466,-1.6120335 0.065582,-1.8532928 0.137067,-0.087012 1.05390298,-0.1602385 3.96648398,-0.3157643 3.677931,-0.196395 3.805393,-0.2082542 4.313825,-0.4080639 0.288152,-0.1132423 0.568375,-0.2404871 0.621814,-0.2817593 0.06332,-0.04891 0.09716,-0.2909074 0.09716,-0.6946818 -10e-7,-0.650651 0.2502292,-2.0630297 0.4104932,-2.3196527 0.05165,-0.082712 0.154614,-0.1505975 0.23075,-0.1505954 0.03938,-2.8e-6 0.18946,-0.00729 0.18946,-0.00729 0,0 0.04548,-0.2616912 0.06801,-0.3230505 0.190868,-0.5198607 0.249631,-0.5853758 0.344911,-0.5853759 z"
     inkscape:connector-curvature="0" />
</svg>
