<?xml version="1.0" encoding="UTF-8" standalone="no"?>
<svg
   xmlns:dc="http://purl.org/dc/elements/1.1/"
   xmlns:cc="http://creativecommons.org/ns#"
   xmlns:rdf="http://www.w3.org/1999/02/22-rdf-syntax-ns#"
   xmlns:svg="http://www.w3.org/2000/svg"
   xmlns="http://www.w3.org/2000/svg"
   xmlns:sodipodi="http://sodipodi.sourceforge.net/DTD/sodipodi-0.dtd"
   xmlns:inkscape="http://www.inkscape.org/namespaces/inkscape"
   version="1.0"
   width="200"
   height="200"
   id="svg2"
   sodipodi:version="0.32"
   inkscape:version="0.91 r13725"
   sodipodi:docname="small_computer_plane.svg"
   inkscape:output_extension="org.inkscape.output.svg.inkscape">
  <metadata
     id="metadata16">
    <rdf:RDF>
      <cc:Work
         rdf:about="">
        <dc:format>image/svg+xml</dc:format>
        <dc:type
           rdf:resource="http://purl.org/dc/dcmitype/StillImage" />
        <dc:title></dc:title>
      </cc:Work>
    </rdf:RDF>
  </metadata>
  <sodipodi:namedview
     inkscape:window-height="700"
     inkscape:window-width="1080"
     inkscape:pageshadow="2"
     inkscape:pageopacity="0.0"
     guidetolerance="10.0"
     gridtolerance="10.0"
     objecttolerance="10.0"
     borderopacity="1.0"
     bordercolor="#666666"
     pagecolor="#ffffff"
     id="base"
     showgrid="false"
     inkscape:zoom="2.8875"
     inkscape:cx="67.761976"
     inkscape:cy="162.33751"
     inkscape:window-x="203"
     inkscape:window-y="60"
     inkscape:current-layer="svg2"
     inkscape:window-maximized="0" />
  <defs
     id="defs4">
    <inkscape:perspective
       sodipodi:type="inkscape:persp3d"
       inkscape:vp_x="0 : 10 : 1"
       inkscape:vp_y="0 : 1000 : 0"
       inkscape:vp_z="20 : 10 : 1"
       inkscape:persp3d-origin="10 : 6.6666667 : 1"
       id="perspective18" />
    <filter
       id="filter">
      <feGaussianBlur
         stdDeviation="0.4858"
         id="feGaussianBlur7" />
    </filter>
  </defs>
  <path
     style="fill:#000000"
     id="path13"
     d="m 11.096669,18.576488 c -0.09528,-1e-6 -0.151613,-0.06552 -0.342482,-0.585379 -0.02253,-0.06136 -0.06801,-0.323051 -0.06801,-0.323051 2e-6,0 -0.152508,-0.0073 -0.191887,-0.0073 -0.07613,-3e-6 -0.179095,-0.06788 -0.230752,-0.150594 -0.160261,-0.256626 -0.4104919,-1.669002 -0.4104939,-2.319653 10e-7,-0.403774 -0.03383,-0.645772 -0.09716,-0.694681 -0.05344,-0.04127 -0.33366,-0.168515 -0.621813,-0.281756 -0.508433,-0.199812 -0.635895,-0.211672 -4.313827,-0.408066 -2.912579,-0.155526 -3.82941797,-0.228752 -3.96648497,-0.315763 -0.380048,-0.241258 -0.399835,-0.798665 -0.06558,-1.853294 l 0.172457,-0.544086 c 0,0 8.96527497,-1.4840922 8.96527497,-1.4840922 l 0.7529769,-5.511301 -0.199173,-0.05587 c -0.109482,-0.03031 -0.8449719,-0.11119 -1.6346879,-0.179742 -0.789716,-0.06855 -1.480512,-0.161157 -1.535101,-0.206462 -0.219451,-0.182131 -0.047,-1.617685 0.194317,-1.617684 0.380873,-1e-6 1.789084,-0.189369 1.863009,-0.250183 0.05276,-0.04343 1.2629819,-0.206462 1.7294159,-0.206461 0.466434,-1e-6 1.676637,0.163041 1.729416,0.206461 0.07395,0.0608 1.482137,0.250182 1.86301,0.250183 0.241315,0 0.413769,1.435555 0.194315,1.617684 -0.05461,0.04528 -0.745381,0.137907 -1.535098,0.206462 -0.789716,0.06855 -1.525207,0.149431 -1.634689,0.179743 l -0.199173,0.05587 0.752976,5.511301 c 0,0 8.965277,1.4840932 8.965278,1.4840922 l 0.172455,0.544086 c 0.334254,1.05463 0.314466,1.612034 -0.06558,1.853293 -0.137067,0.08701 -1.053903,0.160239 -3.966484,0.315765 -3.677931,0.196395 -3.805393,0.208254 -4.313825,0.408063 -0.288152,0.113243 -0.568375,0.240488 -0.621814,0.28176 -0.06332,0.04891 -0.09716,0.290907 -0.09716,0.694682 1e-6,0.650651 -0.250229,2.063029 -0.410493,2.319652 -0.05165,0.08271 -0.154614,0.150598 -0.23075,0.150596 -0.03938,2e-6 -0.18946,0.0073 -0.18946,0.0073 0,0 -0.04548,0.261691 -0.06801,0.32305 -0.190868,0.519861 -0.249631,0.585376 -0.344911,0.585376 z"
     inkscape:connector-curvature="0" />
</svg>
